<svg version="1.1" id="Layer_1" xmlns="http://www.w3.org/2000/svg" xmlns:xlink="http://www.w3.org/1999/xlink" x="0px" y="0px"
	 width="100%" viewBox="0 0 1080 1080" enable-background="new 0 0 1080 1080" xml:space="preserve">
<path fill="#FFFFFF" opacity="1.000000" stroke="none" 
	d="
M601.000000,1081.000000 
	C400.689728,1081.000000 200.879456,1081.000000 1.034590,1081.000000 
	C1.034590,721.064575 1.034590,361.129211 1.034590,1.096903 
	C360.893829,1.096903 720.787659,1.096903 1080.840820,1.096903 
	C1080.840820,360.999939 1080.840820,720.999939 1080.840820,1081.000000 
	C921.128723,1081.000000 761.314392,1081.000000 601.000000,1081.000000 
M244.247467,476.996979 
	C243.414154,476.994415 242.580841,476.990326 241.747528,476.989471 
	C234.445267,476.981781 234.522385,476.975952 233.972427,469.908722 
	C233.600861,465.133820 232.974060,460.378784 232.461411,455.614899 
	C232.049011,455.620758 231.636612,455.626648 231.224213,455.632538 
	C231.148132,457.343018 231.007904,459.053406 231.005997,460.763947 
	C230.988815,476.097198 231.271652,491.436951 230.912445,506.761780 
	C230.601135,520.042114 241.890884,532.740540 256.707855,532.953003 
	C272.871124,533.184875 289.042053,533.154907 305.206299,532.960938 
	C319.388153,532.790710 330.811554,521.280945 330.965363,507.084686 
	C331.131470,491.753235 331.095978,476.417542 330.932068,461.086060 
	C330.895172,457.633484 329.962189,454.190521 329.441711,450.743103 
	C328.206818,451.916199 328.034668,452.972015 328.017975,454.030273 
	C327.844574,465.038025 327.851501,465.038147 316.824554,464.300446 
	C314.295166,456.431030 309.685974,450.720825 300.897583,449.969299 
	C292.531250,449.253815 286.631317,454.329773 281.285248,459.061096 
	C277.406769,456.515350 274.012573,453.819061 270.225708,451.896027 
	C261.384003,447.405975 252.600952,449.997345 247.471710,458.560974 
	C244.046417,464.279755 242.663513,470.455719 244.247467,476.996979 
M260.905243,431.014557 
	C259.615479,431.077209 258.325684,431.139893 257.035919,431.202576 
	C257.040833,431.379547 257.045715,431.556549 257.050629,431.733521 
	C273.027618,431.733521 289.004578,431.733521 304.981567,431.733521 
	C304.983551,431.493866 304.985504,431.254181 304.987488,431.014526 
	C290.594757,431.014526 276.202057,431.014526 260.905243,431.014557 
M250.753387,432.462463 
	C251.146179,432.585876 251.534439,432.730927 251.935455,432.815186 
	C252.019577,432.832855 252.150711,432.626923 252.260193,432.524048 
	C251.867645,432.400818 251.475098,432.277588 250.753387,432.462463 
M313.808868,433.735535 
	C313.971130,433.621063 314.133392,433.506592 314.295654,433.392120 
	C314.067474,433.414856 313.839264,433.437622 313.808868,433.735535 
M327.244568,447.187195 
	C327.416107,447.129395 327.587677,447.071564 327.759247,447.013763 
	C327.586487,446.957520 327.413696,446.901245 327.244568,447.187195 
M310.482300,432.591339 
	C310.482300,432.591339 310.403687,432.471344 310.482300,432.591339 
z"/>
<path fill="#D8DCE2" opacity="1.000000" stroke="none" 
	d="
M317.025085,465.006744 
	C327.851501,465.038147 327.844574,465.038025 328.017975,454.030273 
	C328.034668,452.972015 328.206818,451.916199 329.441711,450.743103 
	C329.962189,454.190521 330.895172,457.633484 330.932068,461.086060 
	C331.095978,476.417542 331.131470,491.753235 330.965363,507.084686 
	C330.811554,521.280945 319.388153,532.790710 305.206299,532.960938 
	C289.042053,533.154907 272.871124,533.184875 256.707855,532.953003 
	C241.890884,532.740540 230.601135,520.042114 230.912445,506.761780 
	C231.271652,491.436951 230.988815,476.097198 231.005997,460.763947 
	C231.007904,459.053406 231.148132,457.343018 231.224213,455.632538 
	C231.636612,455.626648 232.049011,455.620758 232.461411,455.614899 
	C232.974060,460.378784 233.600861,465.133820 233.972427,469.908722 
	C234.522385,476.975952 234.445267,476.981781 241.747528,476.989471 
	C242.580841,476.990326 243.414154,476.994415 244.936127,477.282379 
	C247.175400,481.052155 248.163269,484.981262 250.454285,487.880554 
	C252.295441,490.210449 255.628708,492.428284 258.455566,492.642639 
	C262.002716,492.911621 265.709747,491.088226 269.345978,490.160797 
	C271.097870,489.713989 272.845581,489.250763 275.999664,488.429047 
	C274.180511,491.192383 273.254669,492.598724 272.422821,493.862305 
	C279.417450,498.454742 284.504608,490.720673 291.640808,490.762909 
	C285.732666,501.724304 276.002716,502.304443 266.189209,503.157745 
	C271.384186,508.006744 279.222534,511.301605 282.903625,510.016541 
	C296.509521,505.266663 306.539703,496.230957 313.796844,483.911285 
	C315.805939,480.500610 314.712036,478.496765 311.403168,476.804199 
	C304.634857,473.342010 297.810516,472.915283 290.700256,475.574219 
	C289.060669,476.187347 287.246277,476.333038 285.512360,476.693817 
	C285.369812,476.326416 285.227295,475.959015 285.084778,475.591583 
	C286.069794,474.418549 287.054779,473.245483 288.054016,472.055450 
	C281.302948,467.280579 276.275269,474.619446 269.502380,474.759399 
	C272.199921,468.903442 276.251495,466.254272 281.092163,464.787231 
	C294.491302,460.726349 306.377075,463.611969 317.025085,474.018219 
	C317.025085,470.318237 317.025085,467.662476 317.025085,465.006744 
z"/>
<path fill="#3ABF85" opacity="1.000000" stroke="none" 
	d="
M316.924805,464.653595 
	C317.025085,467.662476 317.025085,470.318237 317.025085,474.018219 
	C306.377075,463.611969 294.491302,460.726349 281.092163,464.787231 
	C276.251495,466.254272 272.199921,468.903442 269.502380,474.759399 
	C276.275269,474.619446 281.302948,467.280579 288.054016,472.055450 
	C287.054779,473.245483 286.069794,474.418549 285.084778,475.591583 
	C285.227295,475.959015 285.369812,476.326416 285.512360,476.693817 
	C287.246277,476.333038 289.060669,476.187347 290.700256,475.574219 
	C297.810516,472.915283 304.634857,473.342010 311.403168,476.804199 
	C314.712036,478.496765 315.805939,480.500610 313.796844,483.911285 
	C306.539703,496.230957 296.509521,505.266663 282.903625,510.016541 
	C279.222534,511.301605 271.384186,508.006744 266.189209,503.157745 
	C276.002716,502.304443 285.732666,501.724304 291.640808,490.762909 
	C284.504608,490.720673 279.417450,498.454742 272.422821,493.862305 
	C273.254669,492.598724 274.180511,491.192383 275.999664,488.429047 
	C272.845581,489.250763 271.097870,489.713989 269.345978,490.160797 
	C265.709747,491.088226 262.002716,492.911621 258.455566,492.642639 
	C255.628708,492.428284 252.295441,490.210449 250.454285,487.880554 
	C248.163269,484.981262 247.175400,481.052155 245.401398,477.290070 
	C242.663513,470.455719 244.046417,464.279755 247.471710,458.560974 
	C252.600952,449.997345 261.384003,447.405975 270.225708,451.896027 
	C274.012573,453.819061 277.406769,456.515350 281.285248,459.061096 
	C286.631317,454.329773 292.531250,449.253815 300.897583,449.969299 
	C309.685974,450.720825 314.295166,456.431030 316.924805,464.653595 
M282.084961,478.468445 
	C280.645874,479.559814 279.114716,480.552826 277.803101,481.780426 
	C277.048737,482.486481 276.017578,484.219299 276.189148,484.387024 
	C277.851379,486.011902 279.732330,487.415863 281.590271,488.831146 
	C281.712708,488.924347 282.407013,488.608063 282.415070,488.459503 
	C282.559967,485.786804 289.102234,483.541595 282.991028,480.406830 
	C282.703857,480.259583 282.741058,479.479919 282.084961,478.468445 
z"/>
<path fill="#D8DCE2" opacity="1.000000" stroke="none" 
	d="
M261.357300,431.014526 
	C276.202057,431.014526 290.594757,431.014526 304.987488,431.014526 
	C304.985504,431.254181 304.983551,431.493866 304.981567,431.733521 
	C289.004578,431.733521 273.027618,431.733521 257.050629,431.733521 
	C257.045715,431.556549 257.040833,431.379547 257.035919,431.202576 
	C258.325684,431.139893 259.615479,431.077209 261.357300,431.014526 
z"/>
<path fill="#D8DCE2" opacity="1.000000" stroke="none" 
	d="
M250.917969,432.308411 
	C251.475098,432.277588 251.867645,432.400818 252.260193,432.524048 
	C252.150711,432.626923 252.019577,432.832855 251.935455,432.815186 
	C251.534439,432.730927 251.146179,432.585876 250.917969,432.308411 
z"/>
<path fill="#D8DCE2" opacity="1.000000" stroke="none" 
	d="
M313.709961,433.597961 
	C313.839264,433.437622 314.067474,433.414856 314.295654,433.392120 
	C314.133392,433.506592 313.971130,433.621063 313.709961,433.597961 
z"/>
<path fill="#D8DCE2" opacity="1.000000" stroke="none" 
	d="
M327.242737,447.016083 
	C327.413696,446.901245 327.586487,446.957520 327.759247,447.013733 
	C327.587677,447.071564 327.416107,447.129395 327.242737,447.016083 
z"/>
<path fill="#D8DCE2" opacity="1.000000" stroke="none" 
	d="
M310.442993,432.531342 
	C310.403687,432.471344 310.482300,432.591339 310.442993,432.531342 
z"/>
<path fill="#D8DCE2" opacity="1.000000" stroke="none" 
	d="
M282.356079,478.731628 
	C282.741058,479.479919 282.703857,480.259583 282.991028,480.406830 
	C289.102234,483.541595 282.559967,485.786804 282.415070,488.459503 
	C282.407013,488.608063 281.712708,488.924347 281.590271,488.831146 
	C279.732330,487.415863 277.851379,486.011902 276.189148,484.387024 
	C276.017578,484.219299 277.048737,482.486481 277.803101,481.780426 
	C279.114716,480.552826 280.645874,479.559814 282.356079,478.731628 
z"/>
</svg>