<?xml version="1.0" encoding="UTF-8"?>
<!DOCTYPE svg PUBLIC "-//W3C//DTD SVG 1.1//EN" "http://www.w3.org/Graphics/SVG/1.1/DTD/svg11.dtd">
<svg xmlns="http://www.w3.org/2000/svg" version="1.1" width="1080px" height="1080px" style="shape-rendering:geometricPrecision; text-rendering:geometricPrecision; image-rendering:optimizeQuality; fill-rule:evenodd; clip-rule:evenodd" xmlns:xlink="http://www.w3.org/1999/xlink">
<g><path style="opacity:1" fill="#fefefe" d="M -0.5,-0.5 C 359.5,-0.5 719.5,-0.5 1079.5,-0.5C 1079.5,359.5 1079.5,719.5 1079.5,1079.5C 719.5,1079.5 359.5,1079.5 -0.5,1079.5C -0.5,719.5 -0.5,359.5 -0.5,-0.5 Z"/></g>
<g><path style="opacity:1" fill="#f2f4f5" d="M 251.5,427.5 C 269.836,427.333 288.17,427.5 306.5,428C 321.333,430.833 330.167,439.667 333,454.5C 333.667,472.5 333.667,490.5 333,508.5C 330.286,522.881 321.786,531.715 307.5,535C 288.833,535.667 270.167,535.667 251.5,535C 237.667,531.833 229.167,523.333 226,509.5C 225.06,489.123 225.394,468.79 227,448.5C 231.705,437.284 239.872,430.284 251.5,427.5 Z"/></g>
<g><path style="opacity:1" fill="#fafbfc" d="M 322.5,439.5 C 322.893,441.284 323.559,442.95 324.5,444.5C 294.671,445.498 264.671,445.831 234.5,445.5C 236.676,438.551 241.342,434.051 248.5,432C 268.833,431.333 289.167,431.333 309.5,432C 314.45,433.453 318.783,435.953 322.5,439.5 Z"/></g>
<g><path style="opacity:1" fill="#62d185" d="M 315.5,465.5 C 315.663,467.857 315.497,470.19 315,472.5C 307.77,465.033 298.937,461.366 288.5,461.5C 287.047,460.175 287.381,459.342 289.5,459C 291.833,458.667 294.167,458.333 296.5,458C 295.313,456.981 294.313,455.814 293.5,454.5C 291.716,453.394 289.882,453.394 288,454.5C 286.97,454.164 286.47,453.497 286.5,452.5C 295.782,446.39 304.282,447.39 312,455.5C 314.035,458.561 315.201,461.895 315.5,465.5 Z"/></g>
<g><path style="opacity:1" fill="#44c384" d="M 286.5,452.5 C 286.47,453.497 286.97,454.164 288,454.5C 289.882,453.394 291.716,453.394 293.5,454.5C 294.313,455.814 295.313,456.981 296.5,458C 294.167,458.333 291.833,458.667 289.5,459C 287.381,459.342 287.047,460.175 288.5,461.5C 281.093,461.706 274.759,464.373 269.5,469.5C 262.521,464.521 256.521,458.521 251.5,451.5C 255.32,448.677 259.653,447.844 264.5,449C 270.448,450.642 275.448,453.809 279.5,458.5C 281.239,455.757 283.573,453.757 286.5,452.5 Z"/></g>
<g><path style="opacity:1" fill="#2ca1d4" d="M 250.5,452.5 C 255.967,463.97 263.967,473.303 274.5,480.5C 274.5,481.5 274.5,482.5 274.5,483.5C 275.5,483.5 276.5,483.5 277.5,483.5C 277.5,484.833 277.5,486.167 277.5,487.5C 279.483,487.843 280.817,487.176 281.5,485.5C 283.167,486.5 284.5,487.833 285.5,489.5C 281.052,493.642 276.052,494.476 270.5,492C 275.472,489.693 275.472,488.193 270.5,487.5C 262.202,478.702 253.702,470.035 245,461.5C 244.617,462.056 244.117,462.389 243.5,462.5C 244.359,458.108 246.693,454.775 250.5,452.5 Z"/></g>
<g><path style="opacity:1" fill="#2198d0" d="M 270.5,487.5 C 269.167,488.167 267.833,488.833 266.5,489.5C 259.167,481.5 251.5,473.833 243.5,466.5C 243.5,465.833 243.5,465.167 243.5,464.5C 243.5,463.833 243.5,463.167 243.5,462.5C 244.117,462.389 244.617,462.056 245,461.5C 253.702,470.035 262.202,478.702 270.5,487.5 Z"/></g>
<g><path style="opacity:1" fill="#38bd85" d="M 251.5,451.5 C 256.521,458.521 262.521,464.521 269.5,469.5C 269.461,470.583 269.127,471.583 268.5,472.5C 269.167,472.833 269.833,473.167 270.5,473.5C 272.606,472.57 274.606,471.404 276.5,470C 279.882,469.176 283.216,469.343 286.5,470.5C 285.5,471.833 284.5,473.167 283.5,474.5C 284.325,475.386 285.325,475.719 286.5,475.5C 291.229,480.224 295.563,485.224 299.5,490.5C 293.174,489.495 287.507,487.162 282.5,483.5C 284.048,483.179 284.715,482.179 284.5,480.5C 283.791,479.596 282.791,479.263 281.5,479.5C 281.5,478.5 281.5,477.5 281.5,476.5C 279.901,476.232 278.568,476.566 277.5,477.5C 277.5,478.5 277.5,479.5 277.5,480.5C 276.5,480.5 275.5,480.5 274.5,480.5C 263.967,473.303 255.967,463.97 250.5,452.5C 250.5,451.833 250.833,451.5 251.5,451.5 Z"/></g>
<g><path style="opacity:1" fill="#1a8dcb" d="M 243.5,466.5 C 251.5,473.833 259.167,481.5 266.5,489.5C 261.552,490.559 256.552,490.726 251.5,490C 245.752,483.257 243.085,475.424 243.5,466.5 Z"/></g>
<g><path style="opacity:1" fill="#49c684" d="M 305.5,491.5 C 303.565,490.85 301.565,490.517 299.5,490.5C 295.563,485.224 291.229,480.224 286.5,475.5C 294.818,471.43 303.152,471.596 311.5,476C 313.211,477.133 313.711,478.633 313,480.5C 311.418,484.894 308.918,488.561 305.5,491.5 Z"/></g>
<g><path style="opacity:1" fill="#91d0c9" d="M 277.5,477.5 C 278.568,476.566 279.901,476.232 281.5,476.5C 281.5,477.5 281.5,478.5 281.5,479.5C 282.791,479.263 283.791,479.596 284.5,480.5C 283.167,480.5 281.833,480.5 280.5,480.5C 280.5,479.5 280.5,478.5 280.5,477.5C 279.5,477.5 278.5,477.5 277.5,477.5 Z"/></g>
<g><path style="opacity:1" fill="#e0e6eb" d="M 277.5,477.5 C 278.5,477.5 279.5,477.5 280.5,477.5C 280.5,478.5 280.5,479.5 280.5,480.5C 281.833,480.5 283.167,480.5 284.5,480.5C 284.715,482.179 284.048,483.179 282.5,483.5C 281.662,483.842 281.328,484.508 281.5,485.5C 280.817,487.176 279.483,487.843 277.5,487.5C 277.5,486.167 277.5,484.833 277.5,483.5C 276.5,483.5 275.5,483.5 274.5,483.5C 274.5,482.5 274.5,481.5 274.5,480.5C 275.5,480.5 276.5,480.5 277.5,480.5C 277.5,479.5 277.5,478.5 277.5,477.5 Z"/></g>
<g><path style="opacity:1" fill="#e3e8eb" d="M 322.5,439.5 C 325.683,442.823 327.85,446.823 329,451.5C 329.667,471.5 329.667,491.5 329,511.5C 327.541,518.443 323.708,523.443 317.5,526.5C 318.782,523.383 320.949,521.05 324,519.5C 324.926,514.721 326.259,510.054 328,505.5C 328.667,488.5 328.667,471.5 328,454.5C 327.667,466.833 327.333,479.167 327,491.5C 319.921,492.48 312.755,492.813 305.5,492.5C 305.5,492.167 305.5,491.833 305.5,491.5C 308.918,488.561 311.418,484.894 313,480.5C 313.711,478.633 313.211,477.133 311.5,476C 303.152,471.596 294.818,471.43 286.5,475.5C 285.325,475.719 284.325,475.386 283.5,474.5C 284.5,473.167 285.5,471.833 286.5,470.5C 283.216,469.343 279.882,469.176 276.5,470C 274.606,471.404 272.606,472.57 270.5,473.5C 269.833,473.167 269.167,472.833 268.5,472.5C 269.127,471.583 269.461,470.583 269.5,469.5C 274.759,464.373 281.093,461.706 288.5,461.5C 298.937,461.366 307.77,465.033 315,472.5C 315.497,470.19 315.663,467.857 315.5,465.5C 316.451,466.919 316.784,468.585 316.5,470.5C 319.833,470.5 323.167,470.5 326.5,470.5C 326.666,463.159 326.5,455.826 326,448.5C 325.79,446.942 325.29,445.609 324.5,444.5C 323.559,442.95 322.893,441.284 322.5,439.5 Z"/></g>
<g><path style="opacity:1" fill="#36aad7" d="M 282.5,483.5 C 287.507,487.162 293.174,489.495 299.5,490.5C 301.565,490.517 303.565,490.85 305.5,491.5C 305.5,491.833 305.5,492.167 305.5,492.5C 300.687,497.983 295.02,502.317 288.5,505.5C 286.5,502.833 284.167,500.5 281.5,498.5C 285.036,496.814 287.703,494.147 289.5,490.5C 288.311,489.571 286.978,489.238 285.5,489.5C 284.5,487.833 283.167,486.5 281.5,485.5C 281.328,484.508 281.662,483.842 282.5,483.5 Z"/></g>
<g><path style="opacity:1" fill="#dfe3e8" d="M 243.5,464.5 C 243.5,465.167 243.5,465.833 243.5,466.5C 243.085,475.424 245.752,483.257 251.5,490C 256.552,490.726 261.552,490.559 266.5,489.5C 267.833,488.833 269.167,488.167 270.5,487.5C 275.472,488.193 275.472,489.693 270.5,492C 276.052,494.476 281.052,493.642 285.5,489.5C 286.978,489.238 288.311,489.571 289.5,490.5C 287.703,494.147 285.036,496.814 281.5,498.5C 278.365,500.023 275.032,500.69 271.5,500.5C 258.254,500.823 245.087,500.489 232,499.5C 230.734,505.631 231.734,511.298 235,516.5C 237.96,519.613 240.794,522.78 243.5,526C 245.957,527.562 248.624,528.562 251.5,529C 270.167,529.667 288.833,529.667 307.5,529C 310.679,527.539 314.012,526.705 317.5,526.5C 315.351,528.746 312.684,530.246 309.5,531C 289.833,531.667 270.167,531.667 250.5,531C 240.106,528.274 233.273,521.774 230,511.5C 229.333,491.5 229.333,471.5 230,451.5C 230.333,451.167 230.667,450.833 231,450.5C 231.39,457.184 231.89,463.85 232.5,470.5C 235.833,470.5 239.167,470.5 242.5,470.5C 242.205,468.265 242.539,466.265 243.5,464.5 Z"/></g>
<g><path style="opacity:1" fill="#d7dbe2" d="M 317.5,526.5 C 314.012,526.705 310.679,527.539 307.5,529C 288.833,529.667 270.167,529.667 251.5,529C 248.624,528.562 245.957,527.562 243.5,526C 240.794,522.78 237.96,519.613 235,516.5C 231.734,511.298 230.734,505.631 232,499.5C 245.087,500.489 258.254,500.823 271.5,500.5C 269.369,501.314 267.036,501.814 264.5,502C 271.919,509.127 279.919,510.294 288.5,505.5C 295.02,502.317 300.687,497.983 305.5,492.5C 312.755,492.813 319.921,492.48 327,491.5C 327.333,479.167 327.667,466.833 328,454.5C 328.667,471.5 328.667,488.5 328,505.5C 326.259,510.054 324.926,514.721 324,519.5C 320.949,521.05 318.782,523.383 317.5,526.5 Z"/></g>
<g><path style="opacity:1" fill="#2290cc" d="M 281.5,498.5 C 284.167,500.5 286.5,502.833 288.5,505.5C 279.919,510.294 271.919,509.127 264.5,502C 267.036,501.814 269.369,501.314 271.5,500.5C 275.032,500.69 278.365,500.023 281.5,498.5 Z"/></g>
</svg>
