<?xml version="1.0" encoding="UTF-8"?>
<!DOCTYPE svg PUBLIC "-//W3C//DTD SVG 1.1//EN" "http://www.w3.org/Graphics/SVG/1.1/DTD/svg11.dtd">
<svg xmlns="http://www.w3.org/2000/svg" version="1.1" width="1320px" height="1000px" style="shape-rendering:geometricPrecision; text-rendering:geometricPrecision; image-rendering:optimizeQuality; fill-rule:evenodd; clip-rule:evenodd" xmlns:xlink="http://www.w3.org/1999/xlink">
<g><path style="opacity:1" fill="#50a0f2" d="M 291.5,379.5 C 301.443,379.855 311.109,381.688 320.5,385C 328.431,388.878 335.931,393.378 343,398.5C 372.439,375.54 402.939,374.04 434.5,394C 457.443,412.814 466.609,436.981 462,466.5C 460.468,473.393 457.968,479.893 454.5,486C 459.69,485.696 464.19,487.196 468,490.5C 469.378,494.987 468.212,498.487 464.5,501C 457.167,501.333 449.833,501.667 442.5,502C 409.32,535.347 375.986,568.514 342.5,601.5C 305.123,565.29 268.623,528.29 233,490.5C 215.141,457.204 218.975,426.704 244.5,399C 258.09,387.308 273.757,380.808 291.5,379.5 Z M 449.5,488.5 C 448.957,488.56 448.624,488.893 448.5,489.5C 452.783,490.492 457.116,490.826 461.5,490.5C 466.077,492.475 466.411,494.975 462.5,498C 455.167,498.333 447.833,498.667 440.5,499C 407.986,531.68 375.32,564.18 342.5,596.5C 308.514,563.014 274.68,529.347 241,495.5C 221.918,469.094 220.584,441.761 237,413.5C 258.859,385.552 286.692,377.385 320.5,389C 328.511,392.851 335.844,397.684 342.5,403.5C 370.911,379.494 400.911,377.328 432.5,397C 457.79,418.312 465.29,444.812 455,476.5C 453.412,480.672 451.579,484.672 449.5,488.5 Z M 285.5,389.5 C 308.279,388.064 327.279,395.731 342.5,412.5C 363.516,389.83 388.516,383.997 417.5,395C 448.852,412.551 459.685,438.718 450,473.5C 448,477.5 446,481.5 444,485.5C 425.898,486.16 407.731,486.827 389.5,487.5C 384.333,495.833 379.167,504.167 374,512.5C 363.914,482.572 353.247,452.905 342,423.5C 332.105,444.29 321.939,464.956 311.5,485.5C 308.216,486.657 304.882,486.824 301.5,486C 294.141,476.535 285.641,475.369 276,482.5C 269.224,492.071 270.391,500.571 279.5,508C 288.407,511.454 295.74,509.454 301.5,502C 308.167,501.667 314.833,501.333 321.5,501C 327.794,488.911 333.961,476.745 340,464.5C 350,492.5 360,520.5 370,548.5C 379.708,532.915 389.542,517.415 399.5,502C 409.5,501.333 419.5,501.333 429.5,502C 400.653,531.014 371.653,559.847 342.5,588.5C 307.789,554.957 273.956,520.623 241,485.5C 228.093,462.27 228.427,439.27 242,416.5C 253.038,401.74 267.538,392.74 285.5,389.5 Z"/></g>
<g><path style="opacity:1" fill="#54a1f2" d="M 289.5,385.5 C 310.583,385.134 328.417,392.467 343,407.5C 361.139,388.837 382.972,382.337 408.5,388C 439.253,397.932 455.587,419.099 457.5,451.5C 457.304,465.418 453.304,478.085 445.5,489.5C 427.5,490.167 409.5,490.833 391.5,491.5C 385.531,501.301 379.364,510.967 373,520.5C 362.864,491.091 352.53,461.758 342,432.5C 332.356,451.62 322.856,470.787 313.5,490C 308.798,490.828 304.131,490.662 299.5,489.5C 292.764,479.792 285.264,479.125 277,487.5C 273.272,496.209 275.772,502.375 284.5,506C 291.559,507.288 296.559,504.622 299.5,498C 306.167,497.667 312.833,497.333 319.5,497C 326.599,483.193 333.599,469.36 340.5,455.5C 350.762,483.786 360.929,512.119 371,540.5C 379.5,526.833 388,513.167 396.5,499.5C 410.154,498.334 423.821,498.167 437.5,499C 405.986,530.68 374.32,562.18 342.5,593.5C 306.79,558.957 271.956,523.623 238,487.5C 220.622,454.6 225.456,425.434 252.5,400C 263.59,391.781 275.923,386.948 289.5,385.5 Z M 285.5,389.5 C 267.538,392.74 253.038,401.74 242,416.5C 228.427,439.27 228.093,462.27 241,485.5C 273.956,520.623 307.789,554.957 342.5,588.5C 371.653,559.847 400.653,531.014 429.5,502C 419.5,501.333 409.5,501.333 399.5,502C 389.542,517.415 379.708,532.915 370,548.5C 360,520.5 350,492.5 340,464.5C 333.961,476.745 327.794,488.911 321.5,501C 314.833,501.333 308.167,501.667 301.5,502C 295.74,509.454 288.407,511.454 279.5,508C 270.391,500.571 269.224,492.071 276,482.5C 285.641,475.369 294.141,476.535 301.5,486C 304.882,486.824 308.216,486.657 311.5,485.5C 321.939,464.956 332.105,444.29 342,423.5C 353.247,452.905 363.914,482.572 374,512.5C 379.167,504.167 384.333,495.833 389.5,487.5C 407.731,486.827 425.898,486.16 444,485.5C 446,481.5 448,477.5 450,473.5C 459.685,438.718 448.852,412.551 417.5,395C 388.516,383.997 363.516,389.83 342.5,412.5C 327.279,395.731 308.279,388.064 285.5,389.5 Z"/></g>
<g><path style="opacity:1" fill="#1e8ef0" d="M 566.5,445.5 C 557.043,447.157 547.376,448.157 537.5,448.5C 536.167,479.167 536.167,509.833 537.5,540.5C 547.376,540.843 557.043,541.843 566.5,543.5C 565.405,552.14 563.739,560.64 561.5,569C 547.126,569.891 532.792,569.557 518.5,568C 511.261,566.362 507.094,561.862 506,554.5C 505.017,512.774 505.35,471.107 507,429.5C 509.315,425.183 512.815,422.35 517.5,421C 532.496,420.5 547.496,420.333 562.5,420.5C 564.091,428.79 565.425,437.124 566.5,445.5 Z"/></g>
<g><path style="opacity:1" fill="#238ff0" d="M 576.5,420.5 C 586.833,420.5 597.167,420.5 607.5,420.5C 607.333,460.501 607.5,500.501 608,540.5C 610.213,541.76 612.713,542.426 615.5,542.5C 618.089,542.473 620.589,542.139 623,541.5C 623.5,501.168 623.667,460.835 623.5,420.5C 633.833,420.5 644.167,420.5 654.5,420.5C 654.974,465.872 654.474,511.206 653,556.5C 650.261,564.895 644.427,569.062 635.5,569C 622.167,569.667 608.833,569.667 595.5,569C 586.324,568.678 580.491,564.178 578,555.5C 576.537,510.53 576.037,465.53 576.5,420.5 Z"/></g>
<g><path style="opacity:1" fill="#2790f0" d="M 665.5,420.5 C 687.169,420.333 708.836,420.5 730.5,421C 736.333,422.833 740.167,426.667 742,432.5C 742.667,459.5 742.667,486.5 742,513.5C 739.677,518.92 735.51,521.754 729.5,522C 735.407,537.555 740.407,553.388 744.5,569.5C 734.494,569.666 724.494,569.5 714.5,569C 709.287,553.991 704.454,538.825 700,523.5C 699.29,522.027 698.124,521.36 696.5,521.5C 696.667,537.17 696.5,552.837 696,568.5C 686,569.833 676,569.833 666,568.5C 665.5,519.168 665.333,469.834 665.5,420.5 Z M 696.5,446.5 C 701.762,446.195 706.928,446.529 712,447.5C 712.667,463.833 712.667,480.167 712,496.5C 706.928,497.471 701.762,497.805 696.5,497.5C 696.5,480.5 696.5,463.5 696.5,446.5 Z"/></g>
<g><path style="opacity:1" fill="#1d8ef0" d="M 834.5,566.5 C 825.225,568.473 815.558,569.14 805.5,568.5C 803.957,562.72 802.957,556.72 802.5,550.5C 795.833,550.5 789.167,550.5 782.5,550.5C 781.857,556.69 780.857,562.69 779.5,568.5C 769.833,568.5 760.167,568.5 750.5,568.5C 750.5,567.5 750.5,566.5 750.5,565.5C 758.674,517.458 767.174,469.458 776,421.5C 781.421,420.844 786.921,420.511 792.5,420.5C 798.246,420.526 803.746,421.193 809,422.5C 817.826,470.458 826.326,518.458 834.5,566.5 Z M 793.5,480.5 C 794.756,494.883 796.423,509.216 798.5,523.5C 798.5,524.5 798.5,525.5 798.5,526.5C 794.5,526.5 790.5,526.5 786.5,526.5C 786.5,524.5 786.5,522.5 786.5,520.5C 788.632,507.574 790.299,494.574 791.5,481.5C 792.167,481.167 792.833,480.833 793.5,480.5 Z"/></g>
<g><path style="opacity:1" fill="#2790f0" d="M 873.5,420.5 C 873.5,460.833 873.5,501.167 873.5,541.5C 883.5,541.5 893.5,541.5 903.5,541.5C 902.372,550.6 900.705,559.6 898.5,568.5C 879.935,569.825 861.435,569.825 843,568.5C 842.5,519.168 842.333,469.834 842.5,420.5C 852.833,420.5 863.167,420.5 873.5,420.5 Z"/></g>
<g><path style="opacity:1" fill="#1b8ef0" d="M 912.5,420.5 C 922.5,420.5 932.5,420.5 942.5,420.5C 942.5,470.167 942.5,519.833 942.5,569.5C 932.5,569.5 922.5,569.5 912.5,569.5C 912.5,519.833 912.5,470.167 912.5,420.5 Z"/></g>
<g><path style="opacity:1" fill="#188ef0" d="M 996.5,474.5 C 996.709,475.922 997.209,477.255 998,478.5C 998.5,459.17 998.667,439.836 998.5,420.5C 1008.5,420.5 1018.5,420.5 1028.5,420.5C 1028.5,470.167 1028.5,519.833 1028.5,569.5C 1018.25,569.819 1008.08,569.486 998,568.5C 992.692,549.602 987.859,530.602 983.5,511.5C 983.688,509.897 983.188,508.563 982,507.5C 981.5,527.831 981.333,548.164 981.5,568.5C 972.5,568.5 963.5,568.5 954.5,568.5C 954.5,519.167 954.5,469.833 954.5,420.5C 964.167,420.5 973.833,420.5 983.5,420.5C 988.147,438.423 992.481,456.423 996.5,474.5 Z"/></g>
<g><path style="opacity:1" fill="#198ef0" d="M 1041.5,420.5 C 1051.17,420.5 1060.83,420.5 1070.5,420.5C 1070.5,441.833 1070.5,463.167 1070.5,484.5C 1072.41,484.784 1074.08,484.451 1075.5,483.5C 1080.18,462.768 1085.18,442.101 1090.5,421.5C 1100.81,420.501 1111.15,420.168 1121.5,420.5C 1115.76,443.304 1110.09,466.137 1104.5,489C 1109.9,514.499 1115.23,539.999 1120.5,565.5C 1120.5,566.5 1120.5,567.5 1120.5,568.5C 1109.83,568.5 1099.17,568.5 1088.5,568.5C 1084.48,548.556 1080.64,528.556 1077,508.5C 1075.3,507.594 1073.47,507.261 1071.5,507.5C 1070.5,527.66 1070.17,547.993 1070.5,568.5C 1060.83,568.5 1051.17,568.5 1041.5,568.5C 1041.5,519.167 1041.5,469.833 1041.5,420.5 Z"/></g>
<g><path style="opacity:1" fill="#60b2f5" d="M 1070.5,420.5 C 1071.5,441.327 1071.83,462.327 1071.5,483.5C 1072.83,483.5 1074.17,483.5 1075.5,483.5C 1074.08,484.451 1072.41,484.784 1070.5,484.5C 1070.5,463.167 1070.5,441.833 1070.5,420.5 Z"/></g>
<g><path style="opacity:1" fill="#8bc7f7" d="M 566.5,445.5 C 567.404,446.209 567.737,447.209 567.5,448.5C 557.5,448.5 547.5,448.5 537.5,448.5C 547.376,448.157 557.043,447.157 566.5,445.5 Z"/></g>
<g><path style="opacity:1" fill="#a6d4f9" d="M 998.5,420.5 C 998.667,439.836 998.5,459.17 998,478.5C 997.209,477.255 996.709,475.922 996.5,474.5C 997.167,456.5 997.833,438.5 998.5,420.5 Z"/></g>
<g><path style="opacity:1" fill="#99ccf8" d="M 793.5,480.5 C 792.833,480.833 792.167,481.167 791.5,481.5C 791.201,479.396 791.534,477.396 792.5,475.5C 793.452,477.045 793.785,478.712 793.5,480.5 Z"/></g>
<g><path style="opacity:1" fill="#88c6f7" d="M 449.5,488.5 C 453.5,489.167 457.5,489.833 461.5,490.5C 457.116,490.826 452.783,490.492 448.5,489.5C 448.624,488.893 448.957,488.56 449.5,488.5 Z"/></g>
<g><path style="opacity:1" fill="#7cbdf6" d="M 983.5,511.5 C 982.503,530.659 982.17,549.993 982.5,569.5C 972.985,569.827 963.652,569.494 954.5,568.5C 963.5,568.5 972.5,568.5 981.5,568.5C 981.333,548.164 981.5,527.831 982,507.5C 983.188,508.563 983.688,509.897 983.5,511.5 Z"/></g>
<g><path style="opacity:1" fill="#67b3f5" d="M 786.5,520.5 C 786.5,522.5 786.5,524.5 786.5,526.5C 790.5,526.5 794.5,526.5 798.5,526.5C 798.5,525.5 798.5,524.5 798.5,523.5C 799.434,524.568 799.768,525.901 799.5,527.5C 794.833,527.5 790.167,527.5 785.5,527.5C 785.198,524.941 785.532,522.607 786.5,520.5 Z"/></g>
<g><path style="opacity:1" fill="#8cc7f7" d="M 537.5,540.5 C 547.5,540.5 557.5,540.5 567.5,540.5C 567.737,541.791 567.404,542.791 566.5,543.5C 557.043,541.843 547.376,540.843 537.5,540.5 Z"/></g>
<g><path style="opacity:1" fill="#a3d2f8" d="M 873.5,420.5 C 874.499,460.33 874.832,500.33 874.5,540.5C 884.348,540.173 894.014,540.506 903.5,541.5C 893.5,541.5 883.5,541.5 873.5,541.5C 873.5,501.167 873.5,460.833 873.5,420.5 Z"/></g>
<g><path style="opacity:1" fill="#c0e0fa" d="M 750.5,565.5 C 750.5,566.5 750.5,567.5 750.5,568.5C 760.167,568.5 769.833,568.5 779.5,568.5C 769.681,569.494 759.681,569.827 749.5,569.5C 749.232,567.901 749.566,566.568 750.5,565.5 Z"/></g>
<g><path style="opacity:1" fill="#c2e1fa" d="M 834.5,566.5 C 835.404,567.209 835.737,568.209 835.5,569.5C 825.319,569.827 815.319,569.494 805.5,568.5C 815.558,569.14 825.225,568.473 834.5,566.5 Z"/></g>
<g><path style="opacity:1" fill="#94c9f8" d="M 1041.5,420.5 C 1041.5,469.833 1041.5,519.167 1041.5,568.5C 1051.17,568.5 1060.83,568.5 1070.5,568.5C 1070.17,547.993 1070.5,527.66 1071.5,507.5C 1071.5,528.167 1071.5,548.833 1071.5,569.5C 1061.17,569.5 1050.83,569.5 1040.5,569.5C 1040.17,519.664 1040.5,469.997 1041.5,420.5 Z"/></g>
<g><path style="opacity:1" fill="#c1e1fa" d="M 1120.5,565.5 C 1121.43,566.568 1121.77,567.901 1121.5,569.5C 1110.32,569.828 1099.32,569.495 1088.5,568.5C 1099.17,568.5 1109.83,568.5 1120.5,568.5C 1120.5,567.5 1120.5,566.5 1120.5,565.5 Z"/></g>
<g><path style="opacity:1" fill="#94cbf7" d="M 644.5,594.5 C 642.735,593.539 640.735,593.205 638.5,593.5C 638.5,595.5 638.5,597.5 638.5,599.5C 637.532,597.393 637.198,595.059 637.5,592.5C 640.247,592.187 642.914,592.52 645.5,593.5C 645.376,594.107 645.043,594.44 644.5,594.5 Z"/></g>
<g><path style="opacity:1" fill="#8bc7f7" d="M 677.5,593.5 C 674.941,593.198 672.607,593.532 670.5,594.5C 669.957,594.44 669.624,594.107 669.5,593.5C 672.309,592.2 674.976,592.2 677.5,593.5 Z"/></g>
<g><path style="opacity:1" fill="#82c2f6" d="M 794.5,593.5 C 796.693,592.203 799.027,592.203 801.5,593.5C 801.376,594.107 801.043,594.44 800.5,594.5C 798.735,593.539 796.735,593.205 794.5,593.5 Z"/></g>
<g><path style="opacity:1" fill="#94cbf7" d="M 1043.5,594.5 C 1041.74,593.539 1039.74,593.205 1037.5,593.5C 1037.5,595.5 1037.5,597.5 1037.5,599.5C 1036.53,597.393 1036.2,595.059 1036.5,592.5C 1039.25,592.187 1041.91,592.52 1044.5,593.5C 1044.38,594.107 1044.04,594.44 1043.5,594.5 Z"/></g>
<g><path style="opacity:1" fill="#78b2f5" d="M 569.5,592.5 C 571.467,592.261 573.301,592.594 575,593.5C 575.688,594.332 575.521,594.998 574.5,595.5C 572.414,593.977 570.748,594.31 569.5,596.5C 570.748,598.69 572.414,599.023 574.5,597.5C 575.711,598.274 575.711,599.107 574.5,600C 570.743,601.222 568.076,600.055 566.5,596.5C 567.172,594.84 568.172,593.507 569.5,592.5 Z"/></g>
<g><path style="opacity:1" fill="#66adf4" d="M 608.5,596.5 C 608.167,597.167 607.833,597.833 607.5,598.5C 606.542,598.047 605.708,597.381 605,596.5C 604.781,597.938 604.281,599.271 603.5,600.5C 603.167,600.333 602.833,600.167 602.5,600C 601.565,597.619 601.232,595.119 601.5,592.5C 604.303,592.961 606.637,594.295 608.5,596.5 Z"/></g>
<g><path style="opacity:1" fill="#4b9cf2" d="M 607.5,598.5 C 607.833,597.833 608.167,597.167 608.5,596.5C 608.238,595.022 608.571,593.689 609.5,592.5C 610.833,595.167 610.833,597.833 609.5,600.5C 608.478,600.145 607.811,599.478 607.5,598.5 Z"/></g>
<g><path style="opacity:1" fill="#8cc7f7" d="M 622.5,593.5 C 620.692,594.918 620.025,596.918 620.5,599.5C 619.532,597.393 619.198,595.059 619.5,592.5C 620.791,592.263 621.791,592.596 622.5,593.5 Z"/></g>
<g><path style="opacity:1" fill="#58a2f3" d="M 620.5,599.5 C 620.025,596.918 620.692,594.918 622.5,593.5C 623.794,594.29 624.961,595.29 626,596.5C 626.219,595.062 626.719,593.729 627.5,592.5C 629.524,600.3 628.024,601.633 623,596.5C 622.667,597.5 622.333,598.5 622,599.5C 621.31,600.738 620.81,600.738 620.5,599.5 Z"/></g>
<g><path style="opacity:1" fill="#2b91f0" d="M 644.5,594.5 C 643.127,594.343 641.793,594.51 640.5,595C 642.058,595.21 643.391,595.71 644.5,596.5C 638.034,597.623 638.034,598.29 644.5,598.5C 642.735,599.461 640.735,599.795 638.5,599.5C 638.5,597.5 638.5,595.5 638.5,593.5C 640.735,593.205 642.735,593.539 644.5,594.5 Z"/></g>
<g><path style="opacity:1" fill="#3a97f1" d="M 670.5,594.5 C 672.607,593.532 674.941,593.198 677.5,593.5C 676.791,594.404 675.791,594.737 674.5,594.5C 674.799,596.604 674.466,598.604 673.5,600.5C 673.036,598.025 672.036,596.025 670.5,594.5 Z"/></g>
<g><path style="opacity:1" fill="#6ba8f4" d="M 686.5,593.5 C 687.833,595.5 687.833,597.5 686.5,599.5C 685.167,597.5 685.167,595.5 686.5,593.5 Z"/></g>
<g><path style="opacity:1" fill="#99cdf8" d="M 686.5,593.5 C 686.56,592.957 686.893,592.624 687.5,592.5C 688.833,595.167 688.833,597.833 687.5,600.5C 686.893,600.376 686.56,600.043 686.5,599.5C 687.833,597.5 687.833,595.5 686.5,593.5 Z"/></g>
<g><path style="opacity:1" fill="#61a5f3" d="M 704.5,593.5 C 705.147,594.274 705.48,595.274 705.5,596.5C 705.36,598.03 704.693,599.03 703.5,599.5C 702.206,598.71 701.039,597.71 700,596.5C 699.781,597.938 699.281,599.271 698.5,600.5C 697.52,597.914 697.187,595.247 697.5,592.5C 700.292,592.452 702.125,593.785 703,596.5C 703.232,595.263 703.732,594.263 704.5,593.5 Z"/></g>
<g><path style="opacity:1" fill="#9ccef8" d="M 704.5,593.5 C 704.56,592.957 704.893,592.624 705.5,592.5C 706.48,595.086 706.813,597.753 706.5,600.5C 705.209,600.737 704.209,600.404 703.5,599.5C 704.693,599.03 705.36,598.03 705.5,596.5C 705.48,595.274 705.147,594.274 704.5,593.5 Z"/></g>
<g><path style="opacity:1" fill="#6aacf4" d="M 717.5,592.5 C 719.467,592.261 721.301,592.594 723,593.5C 723.497,595.81 723.663,598.143 723.5,600.5C 719.415,601.341 716.415,600.008 714.5,596.5C 715.172,594.84 716.172,593.507 717.5,592.5 Z M 718.5,594.5 C 723.041,594.331 723.374,594.998 719.5,596.5C 721.762,598.508 721.262,598.841 718,597.5C 717.53,596.423 717.697,595.423 718.5,594.5 Z"/></g>
<g><path style="opacity:1" fill="#5fa6f3" d="M 763.5,592.5 C 764.496,592.414 765.329,592.748 766,593.5C 766.914,595.664 768.081,597.664 769.5,599.5C 769.167,599.833 768.833,600.167 768.5,600.5C 766.132,597.986 763.799,597.986 761.5,600.5C 760.883,597.667 761.55,595 763.5,592.5 Z"/></g>
<g><path style="opacity:1" fill="#58a1f3" d="M 784.5,596.5 C 783.833,595.833 783.167,595.167 782.5,594.5C 781.209,594.263 780.209,594.596 779.5,595.5C 779.5,596.167 779.5,596.833 779.5,597.5C 779.719,598.675 779.386,599.675 778.5,600.5C 777.52,597.914 777.187,595.247 777.5,592.5C 780.908,591.828 783.575,592.828 785.5,595.5C 785.376,596.107 785.043,596.44 784.5,596.5 Z"/></g>
<g><path style="opacity:1" fill="#529ef2" d="M 794.5,593.5 C 796.735,593.205 798.735,593.539 800.5,594.5C 795.167,594.833 795.167,595.167 800.5,595.5C 795.093,597.326 795.426,598.326 801.5,598.5C 799.721,600.344 797.388,601.01 794.5,600.5C 794.5,598.167 794.5,595.833 794.5,593.5 Z"/></g>
<g><path style="opacity:1" fill="#83c0f6" d="M 838.5,593.5 C 836.5,593.5 834.5,593.5 832.5,593.5C 832.5,595.5 832.5,597.5 832.5,599.5C 834.5,599.5 836.5,599.5 838.5,599.5C 836.393,600.468 834.059,600.802 831.5,600.5C 831.5,597.833 831.5,595.167 831.5,592.5C 834.059,592.198 836.393,592.532 838.5,593.5 Z"/></g>
<g><path style="opacity:1" fill="#3995f1" d="M 838.5,593.5 C 837.391,594.29 836.058,594.79 834.5,595C 836.058,595.21 837.391,595.71 838.5,596.5C 832.034,597.623 832.034,598.29 838.5,598.5C 839.833,598.833 839.833,599.167 838.5,599.5C 836.5,599.5 834.5,599.5 832.5,599.5C 832.5,597.5 832.5,595.5 832.5,593.5C 834.5,593.5 836.5,593.5 838.5,593.5 Z"/></g>
<g><path style="opacity:1" fill="#8cc7f7" d="M 850.5,593.5 C 848.692,594.918 848.025,596.918 848.5,599.5C 847.532,597.393 847.198,595.059 847.5,592.5C 848.791,592.263 849.791,592.596 850.5,593.5 Z"/></g>
<g><path style="opacity:1" fill="#5fa7f3" d="M 848.5,599.5 C 848.025,596.918 848.692,594.918 850.5,593.5C 851.794,594.29 852.961,595.29 854,596.5C 854.219,595.062 854.719,593.729 855.5,592.5C 857.524,600.3 856.024,601.633 851,596.5C 850.667,597.5 850.333,598.5 850,599.5C 849.31,600.738 848.81,600.738 848.5,599.5 Z"/></g>
<g><path style="opacity:1" fill="#98cdf8" d="M 868.5,595.5 C 867.778,595.082 867.278,594.416 867,593.5C 866.505,595.473 866.338,597.473 866.5,599.5C 866.338,597.473 866.505,595.473 867,593.5C 867.278,594.416 867.778,595.082 868.5,595.5 Z"/></g>
<g><path style="opacity:1" fill="#4598f1" d="M 868.5,595.5 C 870.199,595.473 871.533,594.806 872.5,593.5C 873.833,595.5 873.833,597.5 872.5,599.5C 872.5,598.5 872.5,597.5 872.5,596.5C 870.833,596.5 869.167,596.5 867.5,596.5C 867.5,597.5 867.5,598.5 867.5,599.5C 867.167,600.833 866.833,600.833 866.5,599.5C 866.338,597.473 866.505,595.473 867,593.5C 867.278,594.416 867.778,595.082 868.5,595.5 Z"/></g>
<g><path style="opacity:1" fill="#71b7f5" d="M 872.5,593.5 C 872.56,592.957 872.893,592.624 873.5,592.5C 874.833,595.167 874.833,597.833 873.5,600.5C 872.893,600.376 872.56,600.043 872.5,599.5C 873.833,597.5 873.833,595.5 872.5,593.5 Z"/></g>
<g><path style="opacity:1" fill="#54a2f3" d="M 906.5,596.5 C 907.417,596.506 907.917,595.506 908,593.5C 908.495,595.473 908.662,597.473 908.5,599.5C 908.103,600.525 907.437,600.692 906.5,600C 905.333,598.833 904.167,597.667 903,596.5C 902.781,597.938 902.281,599.271 901.5,600.5C 899.419,592.35 901.086,591.017 906.5,596.5 Z"/></g>
<g><path style="opacity:1" fill="#a1d1f8" d="M 908.5,599.5 C 908.662,597.473 908.495,595.473 908,593.5C 907.917,595.506 907.417,596.506 906.5,596.5C 906.5,595.167 906.5,593.833 906.5,592.5C 907.5,592.5 908.5,592.5 909.5,592.5C 909.802,595.059 909.468,597.393 908.5,599.5 Z"/></g>
<g><path style="opacity:1" fill="#7ab4f5" d="M 920.5,592.5 C 922.467,592.261 924.301,592.594 926,593.5C 926.688,594.332 926.521,594.998 925.5,595.5C 923.414,593.977 921.748,594.31 920.5,596.5C 921.748,598.69 923.414,599.023 925.5,597.5C 926.711,598.274 926.711,599.107 925.5,600C 922.743,600.782 920.243,600.282 918,598.5C 917.034,595.66 917.867,593.66 920.5,592.5 Z"/></g>
<g><path style="opacity:1" fill="#82bdf6" d="M 934.5,592.5 C 935.5,592.5 936.5,592.5 937.5,592.5C 937.813,595.247 937.48,597.914 936.5,600.5C 935.914,600.291 935.414,599.957 935,599.5C 934.503,597.19 934.337,594.857 934.5,592.5 Z"/></g>
<g><path style="opacity:1" fill="#4b9ff2" d="M 952.5,596.5 C 953.417,596.506 953.917,595.506 954,593.5C 954.167,594.5 954.333,595.5 954.5,596.5C 954.36,598.03 953.693,599.03 952.5,599.5C 951.206,598.71 950.039,597.71 949,596.5C 947.898,601.73 947.065,601.73 946.5,596.5C 946.833,595.167 947.167,593.833 947.5,592.5C 949.186,593.857 950.852,595.19 952.5,596.5 Z"/></g>
<g><path style="opacity:1" fill="#96ccf7" d="M 952.5,599.5 C 953.693,599.03 954.36,598.03 954.5,596.5C 954.333,595.5 954.167,594.5 954,593.5C 953.917,595.506 953.417,596.506 952.5,596.5C 952.5,595.167 952.5,593.833 952.5,592.5C 953.5,592.5 954.5,592.5 955.5,592.5C 955.5,595.167 955.5,597.833 955.5,600.5C 954.209,600.737 953.209,600.404 952.5,599.5 Z"/></g>
<g><path style="opacity:1" fill="#68abf4" d="M 966.5,592.5 C 968.467,592.261 970.301,592.594 972,593.5C 972.497,595.81 972.663,598.143 972.5,600.5C 968.415,601.341 965.415,600.008 963.5,596.5C 964.172,594.84 965.172,593.507 966.5,592.5 Z M 967.5,594.5 C 972.041,594.331 972.374,594.998 968.5,596.5C 970.762,598.508 970.262,598.841 967,597.5C 966.53,596.423 966.697,595.423 967.5,594.5 Z"/></g>
<g><path style="opacity:1" fill="#5ea2f3" d="M 993.5,593.5 C 994.451,594.919 994.784,596.585 994.5,598.5C 996.167,598.5 997.833,598.5 999.5,598.5C 997.735,599.461 995.735,599.795 993.5,599.5C 992.167,597.5 992.167,595.5 993.5,593.5 Z"/></g>
<g><path style="opacity:1" fill="#8cc1f7" d="M 1008.5,592.5 C 1009.5,592.5 1010.5,592.5 1011.5,592.5C 1010.5,603.167 1009.5,603.167 1008.5,592.5 Z"/></g>
<g><path style="opacity:1" fill="#5da6f3" d="M 1025.5,598.5 C 1024.61,599.11 1023.61,599.443 1022.5,599.5C 1020.33,597.512 1019.66,595.179 1020.5,592.5C 1022.15,593.779 1023.31,595.445 1024,597.5C 1024.71,595.919 1025.54,594.419 1026.5,593C 1027.33,592.312 1028,592.479 1028.5,593.5C 1027.73,595.396 1026.73,597.063 1025.5,598.5 Z"/></g>
<g><path style="opacity:1" fill="#5aa0f3" d="M 1043.5,594.5 C 1042.13,594.343 1040.79,594.51 1039.5,595C 1041.06,595.21 1042.39,595.71 1043.5,596.5C 1037.03,597.623 1037.03,598.29 1043.5,598.5C 1044.74,598.81 1044.74,599.31 1043.5,600C 1041.29,600.789 1039.29,600.622 1037.5,599.5C 1037.5,597.5 1037.5,595.5 1037.5,593.5C 1039.74,593.205 1041.74,593.539 1043.5,594.5 Z"/></g>
<g><path style="opacity:1" fill="#69abf4" d="M 585.5,592.5 C 587.989,592.298 590.323,592.798 592.5,594C 593.906,597.673 592.573,599.84 588.5,600.5C 583.225,599.392 582.225,596.725 585.5,592.5 Z M 586.5,594.5 C 589.166,594.066 590.333,595.066 590,597.5C 588.129,598.668 586.629,598.168 585.5,596C 586.056,595.617 586.389,595.117 586.5,594.5 Z"/></g>
<g><path style="opacity:1" fill="#70aef4" d="M 750.5,598.5 C 751.167,598.5 751.5,598.833 751.5,599.5C 749.228,600.764 746.895,600.598 744.5,599C 742.676,594.978 744.009,592.812 748.5,592.5C 750.319,592.342 751.652,593.009 752.5,594.5C 750.722,594.569 748.889,594.903 747,595.5C 746.667,597.934 747.834,598.934 750.5,598.5 Z"/></g>
<g><path style="opacity:1" fill="#b7dcfa" d="M 763.5,595.5 C 765.337,595.639 765.67,596.306 764.5,597.5C 763.702,597.043 763.369,596.376 763.5,595.5 Z"/></g>
<g><path style="opacity:1" fill="#62a7f3" d="M 886.5,592.5 C 889.205,593.69 890.872,595.856 891.5,599C 891.167,599.5 890.833,600 890.5,600.5C 888.5,597.833 886.5,597.833 884.5,600.5C 883.692,600.192 883.025,599.692 882.5,599C 884.058,596.948 885.392,594.781 886.5,592.5 Z"/></g>
<g><path style="opacity:1" fill="#6eb1f5" d="M 782.5,594.5 C 783.167,595.167 783.833,595.833 784.5,596.5C 785.292,597.967 785.292,599.3 784.5,600.5C 783.06,599.048 781.394,598.048 779.5,597.5C 779.5,596.833 779.5,596.167 779.5,595.5C 780.791,595.737 781.791,595.404 782.5,594.5 Z"/></g>
<g><path style="opacity:1" fill="#afd7f9" d="M 800.5,595.5 C 801.404,596.209 801.737,597.209 801.5,598.5C 795.426,598.326 795.093,597.326 800.5,595.5 Z"/></g>
<g><path style="opacity:1" fill="#afd7f9" d="M 838.5,596.5 C 838.5,597.167 838.5,597.833 838.5,598.5C 832.034,598.29 832.034,597.623 838.5,596.5 Z"/></g>
<g><path style="opacity:1" fill="#9acdf8" d="M 872.5,599.5 C 870.833,596.833 869.167,596.833 867.5,599.5C 867.5,598.5 867.5,597.5 867.5,596.5C 869.167,596.5 870.833,596.5 872.5,596.5C 872.5,597.5 872.5,598.5 872.5,599.5 Z"/></g>
<g><path style="opacity:1" fill="#abd6f9" d="M 644.5,596.5 C 644.5,597.167 644.5,597.833 644.5,598.5C 638.034,598.29 638.034,597.623 644.5,596.5 Z"/></g>
<g><path style="opacity:1" fill="#b5dafa" d="M 750.5,598.5 C 750.56,597.957 750.893,597.624 751.5,597.5C 752.773,598.257 752.773,598.923 751.5,599.5C 751.5,598.833 751.167,598.5 750.5,598.5 Z"/></g>
<g><path style="opacity:1" fill="#aed7f9" d="M 993.5,593.5 C 993.56,592.957 993.893,592.624 994.5,592.5C 995.452,594.045 995.785,595.712 995.5,597.5C 997.099,597.232 998.432,597.566 999.5,598.5C 997.833,598.5 996.167,598.5 994.5,598.5C 994.784,596.585 994.451,594.919 993.5,593.5 Z"/></g>
<g><path style="opacity:1" fill="#abd6f9" d="M 1043.5,596.5 C 1043.5,597.167 1043.5,597.833 1043.5,598.5C 1037.03,598.29 1037.03,597.623 1043.5,596.5 Z"/></g>
<g><path style="opacity:1" fill="#69abf4" d="M 655.5,592.5 C 657.5,592.5 659.5,592.5 661.5,592.5C 661.649,593.552 661.483,594.552 661,595.5C 657.85,593.839 656.35,594.839 656.5,598.5C 657.93,598.579 659.264,598.246 660.5,597.5C 661.386,598.325 661.719,599.325 661.5,600.5C 654.187,601.227 652.187,598.56 655.5,592.5 Z"/></g>
<g><path style="opacity:1" fill="#81bcf6" d="M 809.5,597.5 C 812.742,597.467 813.075,598.8 810.5,601.5C 809.571,600.311 809.238,598.978 809.5,597.5 Z"/></g>
<g><path style="opacity:1" fill="#5fa8f3" d="M 1053.5,592.5 C 1055.5,592.5 1057.5,592.5 1059.5,592.5C 1059.67,593.822 1059.34,594.989 1058.5,596C 1059.31,596.308 1059.97,596.808 1060.5,597.5C 1058.14,600.976 1055.47,601.309 1052.5,598.5C 1053.03,597.808 1053.69,597.308 1054.5,597C 1052.22,595.916 1051.88,594.416 1053.5,592.5 Z"/></g>
<g><path style="opacity:1" fill="#bcdefa" d="M 644.5,598.5 C 645.043,598.56 645.376,598.893 645.5,599.5C 643.027,600.797 640.693,600.797 638.5,599.5C 640.735,599.795 642.735,599.461 644.5,598.5 Z"/></g>
<g><path style="opacity:1" fill="#bcdefa" d="M 999.5,598.5 C 1000.04,598.56 1000.38,598.893 1000.5,599.5C 998.027,600.797 995.693,600.797 993.5,599.5C 995.735,599.795 997.735,599.461 999.5,598.5 Z"/></g>
<g><path style="opacity:1" fill="#b7dcfa" d="M 1025.5,598.5 C 1024.95,600.552 1023.95,600.885 1022.5,599.5C 1023.61,599.443 1024.61,599.11 1025.5,598.5 Z"/></g>
</svg>
